<svg width="20" height="15" viewBox="0 0 20 15" fill="none" xmlns="http://www.w3.org/2000/svg">
<path d="M8.16358 0.46875H11.7531V0.9375H8.16358V0.46875Z" fill="white"/>
<path d="M3.97585 1.40625H15.9408V1.875H3.97585V1.40625Z" fill="white"/>
<path d="M15.3426 2.34375H4.57409V14.5312H15.3426V2.34375Z" fill="white"/>
<rect x="8.16357" y="2.8125" width="2.99124" height="11.7188" fill="#E7E7E7"/>
<path d="M8.76182 0.46875H9.95832V0.9375H8.76182V0.46875Z" fill="#E7E7E7"/>
<path d="M8.16358 2.34375H6.36883V2.8125H8.16358V2.34375Z" fill="#E7E7E7"/>
<path d="M6.96708 3.75H6.36883V3.28125H5.77058V3.75H6.36883V13.125H5.77058V13.5938H6.36883V13.125H6.96708V3.75Z" fill="#E7E7E7"/>
<path d="M6.36883 14.0625H5.77058V14.5312H6.36883V14.0625Z" fill="#E7E7E7"/>
<path d="M7.56533 1.40625H6.96708V1.875H7.56533V1.40625Z" fill="#E7E7E7"/>
<path d="M9.36007 1.40625V1.875H8.16358V1.40625H9.36007Z" fill="#E7E7E7"/>
<path d="M9.95832 2.34375H8.16358V2.8125H9.95832V2.34375Z" fill="#CDCDCD"/>
<path d="M6.36883 13.5938H5.77058V14.0625H6.36883V13.5938Z" fill="#CDCDCD"/>
<path d="M5.77058 2.34375H6.36883V3.28125H5.77058V2.34375Z" fill="#CDCDCD"/>
<path d="M10.5566 14.5312V14.0625H9.36007V14.5312H10.5566Z" fill="#CDCDCD"/>
<path d="M10.5566 0.46875H9.95832V0.9375H10.5566V0.46875Z" fill="#C0C0C0"/>
<path d="M5.17233 2.34375H5.77058V3.75H6.36883V13.125H5.77058V14.5312H5.17233V2.34375Z" fill="#C0C0C0"/>
<path d="M5.77058 1.40625H6.96708V1.875H5.77058V1.40625Z" fill="#C0C0C0"/>
<path d="M10.5566 1.875V1.40625H9.36007V1.875H10.5566Z" fill="#C0C0C0"/>
<path d="M9.95832 2.34375H12.3513V2.8125H13.5478V3.28125H12.9496V14.0625H11.7531V14.5312H10.5566V14.0625H11.1548V13.5938H11.7531V13.125H12.3513V3.75H11.7531V3.28125H11.1548V3.75H10.5566V2.8125H9.95832V2.34375Z" fill="#C0C0C0"/>
<path d="M11.1548 13.5938H10.5566V13.125H11.1548V13.5938Z" fill="#C0C0C0"/>
<path d="M9.36007 3.75H8.16357V13.125H9.36007V3.75Z" fill="#C0C0C0"/>
<rect x="10.5566" y="1.40625" width="1.1965" height="0.46875" fill="#A5A5A5"/>
<path d="M8.76183 0.46875H8.16359V0.9375H8.76183V0.46875Z" fill="#969696"/>
<path d="M5.77059 1.40625H4.5741V1.875H5.77059V1.40625Z" fill="#969696"/>
<path d="M4.5741 2.34375H5.17234V14.5312H4.5741V2.34375Z" fill="#969696"/>
<path d="M13.5478 1.40625H11.7531V1.875H13.5478V1.40625Z" fill="#969696"/>
<path d="M12.3513 2.34375H13.5478V2.8125H12.3513V2.34375Z" fill="#969696"/>
<path fill-rule="evenodd" clip-rule="evenodd" d="M14.1461 3.75V2.8125H13.5478V3.28125H12.9496V14.0625H11.7531V14.5312H13.5478V14.0625H14.1461V13.5938H14.7443V13.125H14.1461V13.5938H13.5478V3.75H14.1461ZM14.1461 3.75H14.7443V4.21875H14.1461V3.75Z" fill="#969696"/>
<path d="M12.3513 13.125V3.75H11.1548V13.125H12.3513Z" fill="#969696"/>
<path d="M10.5566 0.46875H11.1548V0.9375H10.5566V0.46875Z" fill="#969696"/>
<path d="M8.16359 3.75H7.56534V13.125H8.16359V13.5938H8.76183V13.125H8.16359V3.75Z" fill="#969696"/>
<path d="M8.16359 3.75V3.28125H8.76183V3.75H8.16359Z" fill="#969696"/>
<path d="M13.5478 1.40625H14.7443V1.875H13.5478V1.40625Z" fill="#777777"/>
<path d="M10.5566 3.75H11.1548V13.125H10.5566V3.75Z" fill="#777777"/>
<path d="M11.1548 13.125H11.7531V13.5938H11.1548V13.125Z" fill="#777777"/>
<path d="M11.1548 3.75H11.7531V3.28125H11.1548V3.75Z" fill="#777777"/>
<path fill-rule="evenodd" clip-rule="evenodd" d="M15.3425 2.34375H13.5478V2.8125H14.1461V3.75H14.7443V4.21875H14.1461V13.125H13.5478V13.5938H14.1461V14.0625H13.5478V14.5312H15.3425V2.34375ZM14.1461 13.5938H14.7443V13.125H14.1461V13.5938Z" fill="#777777"/>
<path d="M11.1548 0.46875H11.7531V0.9375H11.1548V0.46875Z" fill="#666666"/>
<path d="M14.7443 1.40625H15.9408V1.875H14.7443V1.40625Z" fill="#666666"/>
<path d="M4.57409 1.40625H3.97585V1.875H4.57409V1.40625Z" fill="#666666"/>
<rect x="13.5478" y="3.75" width="0.598248" height="9.375" fill="#3F3F3F"/>
<path fill-rule="evenodd" clip-rule="evenodd" d="M11.7531 0H8.16358V0.46875H7.56533V0.9375H3.97584V1.40625H3.37759V2.34375H3.97584V14.5312H4.57409V15H15.3426V14.5312H15.9408V2.34375H16.5391V1.40625H15.9408V0.9375H12.3513V0.46875H11.7531V0ZM15.9408 1.40625V1.875H3.97584V1.40625H15.9408ZM15.3426 14.5312V2.34375H4.57409V14.5312H15.3426ZM11.7531 0.46875V0.9375H8.16358V0.46875H11.7531Z" fill="black"/>
</svg>
